<?xml version="1.0" standalone="no"?><!DOCTYPE svg PUBLIC "-//W3C//DTD SVG 1.1//EN" "http://www.w3.org/Graphics/SVG/1.1/DTD/svg11.dtd"><svg t="1533037383514" class="icon" style="" viewBox="0 0 1025 1024" version="1.1" xmlns="http://www.w3.org/2000/svg" p-id="1552" xmlns:xlink="http://www.w3.org/1999/xlink" width="200.1953125" height="200"><defs><style type="text/css"></style></defs><path d="M938.63256 588.392198C933.984101 610.580288 929.08077 629.43977 923.922567 644.925533 917.727235 663.514334 911.01824 680.031829 903.79362 694.489784L711.810865 584.151512C720.003995 561.54367 724.479927 537.150895 724.479927 511.712659 724.479927 487.286538 720.349051 463.829384 712.767612 441.986513L908.44404 328.935532C915.662778 341.324145 921.860071 356.815793 927.018273 375.404594 932.180396 390.892318 936.56026 410.512849 940.179433 434.266187 943.790763 458.015601 945.600348 484.862168 945.600348 514.817658 945.600348 541.658341 943.275137 566.188417 938.63256 588.392198L938.63256 588.392198ZM838.77008 804.474994C827.414585 816.863604 812.959463 830.54286 795.414518 845.522566 777.865651 860.494426 755.674207 875.20541 728.840184 889.663367 705.097946 903.089592 682.65163 913.416705 661.491436 920.650587 640.331239 927.868775 621.490371 933.037236 604.972753 936.13635 586.40048 940.263272 568.847694 942.848481 552.335956 943.880213L552.335956 720.377196C600.177252 711.193618 642.315313 685.965259 672.925351 650.490209L869.729096 764.194354C861.481069 777.618618 851.156823 791.038961 838.77008 804.474994L838.77008 804.474994ZM420.738083 937.681983C405.251715 933.551139 386.414768 927.35095 364.221361 919.093182 342.027957 910.831494 318.036729 898.962672 292.233956 883.465139 268.491717 869.007182 248.364731 854.549227 231.843191 840.101076 215.331456 825.637237 201.399799 812.207088 190.044306 799.822399 177.659522 785.364442 166.821613 770.912372 157.528613 756.454415L348.189961 646.875229C378.978409 684.199941 422.265352 710.813093 471.635875 720.337965L470.283095 943.87825C455.833856 943.87825 439.312317 941.812829 420.738083 937.681983L420.738083 937.681983ZM114.175014 694.489784C106.956274 682.099211 100.758983 666.613448 95.60078 648.018764 90.436695 632.529077 85.794118 613.175305 81.667165 589.939794 77.534329 566.706244 75.985495 539.598802 77.018706 508.615506 77.018706 481.766978 79.343915 457.238863 83.984533 435.037043 88.632992 412.839146 93.538284 393.989471 98.694526 378.497823 104.891817 359.909022 111.596892 343.389568 118.825434 328.933572L311.692395 441.154852C303.926664 463.235058 299.686 486.976629 299.686 511.710698 299.686 536.107395 303.809032 559.537091 311.372826 581.360346L114.175014 694.489784ZM183.848974 222.055323C195.202506 210.69648 209.912499 197.529169 227.980912 182.557309 246.037561 167.571718 268.493678 152.34879 295.327701 136.85322 319.067979 123.432878 341.259422 113.366641 361.903994 106.650586 382.540723 99.942377 401.124759 94.518927 417.636497 90.386122 436.218571 86.261161 454.285023 83.67595 471.828007 82.64422L471.828007 303.048123C422.794699 312.459231 379.756745 338.733049 348.980062 375.612509L152.887997 262.324194C161.139943 248.90189 171.462229 235.479587 183.848974 222.055323L183.848974 222.055323ZM608.076301 511.706775C608.076301 538.561187 598.783303 561.284756 580.205148 579.861788 561.628956 598.458435 538.919925 607.751855 512.080022 607.751855 485.245999 607.751855 462.801645 598.458435 444.733232 579.861788 426.674624 561.286717 417.638457 538.561187 417.638457 511.706775 417.638457 484.860207 426.674624 462.403398 444.733232 444.330463 462.801645 426.261449 485.245999 417.22106 512.080022 417.22106 538.921886 417.22106 561.628956 426.261449 580.205148 444.330463 598.783303 462.405361 608.076301 484.860207 608.076301 511.706775L608.076301 511.706775ZM603.427841 87.29093C618.91617 91.415891 637.753119 97.357166 659.946524 105.101029 682.139929 112.852738 706.64874 124.466571 733.490604 139.962141 757.226962 154.414213 777.351988 169.133044 793.869606 184.100981 810.379382 199.074802 824.314959 212.761903 835.668493 225.148552 848.053275 239.60847 858.891184 253.546637 868.182223 266.970904L677.216991 378.081993C646.632441 340.30026 603.365104 313.222241 553.886751 303.342343L553.886751 79.543145C568.332068 80.572914 584.851647 83.160086 603.427841 87.29093L603.427841 87.29093ZM898.374665 175.584301C853.470269 124.982435 801.605928 84.962671 742.771841 55.538739 683.937751 26.099116 620.976708 8.290978 553.88479 2.098634 486.790911-4.101556 419.706836 3.642307 352.612957 25.32826 285.519078 47.018138 226.424237 80.319885 175.334313 125.239388 124.244389 170.162814 83.986494 222.053362 54.57239 280.914956 25.150443 339.77851 7.609419 403.027901 1.92775 470.661164-3.744115 538.300313 4.25296 605.684471 25.928782 672.80383 47.606561 739.929076 80.890787 798.788709 125.79322 849.38469 170.693695 899.994402 222.559996 940.010241 281.394086 969.434174 340.228173 998.869876 403.187258 1016.417138 470.281134 1022.103424 537.371092 1027.779903 604.457129 1019.783011 671.552967 998.093135 738.646846 976.403257 797.743649 943.103472 848.831612 898.185931 899.919577 853.258581 940.179433 801.63087 969.591576 743.285141 999.01352 684.93745 1016.556507 621.941089 1022.236213 554.311749 1027.91004 486.672602 1019.914926 419.294327 998.237145 352.167122 976.561325 285.043839 943.275137 226.180282 898.374665 175.584301L898.374665 175.584301Z" p-id="1553" fill="#13227a"></path></svg>