<?xml version="1.0" standalone="no"?>
<!DOCTYPE svg PUBLIC "-//W3C//DTD SVG 1.1//EN" "http://www.w3.org/Graphics/SVG/1.1/DTD/svg11.dtd">
<svg t="1533256532712" class="icon" style="" viewBox="0 0 1024 1024" version="1.1"
     xmlns="http://www.w3.org/2000/svg" p-id="19643"
     xmlns:xlink="http://www.w3.org/1999/xlink" width="128" height="128">
    <defs><style type="text/css"></style></defs>

    <path d="M511.99955 907.73169365c-53.41388555 0-105.24034688-10.46620372-154.03946133-31.10720888-47.12534912-19.93228594-89.44435635-48.46454121-125.78241972-84.80170459-36.3380625-36.3380625-64.86941865-78.65796972-84.80260372-125.78331885-20.64100518-48.79911445-31.10630977-100.62557578-31.10630976-154.03946133 0-53.41388555 10.46620372-105.24034688 31.10630976-154.03946133 19.93318506-47.12534912 48.46454121-89.44435635 84.80260372-125.78241972s78.6570706-64.86941865 125.78241972-84.80260372c48.79911445-20.64100518 100.62557578-31.10630977 154.03946133-31.10630976 53.41478467 0 105.24124599 10.46620372 154.03946133 31.10630976 47.12445 19.93318506 89.44435635 48.46454121 125.78331885 84.80260372 36.33716338 36.3380625 64.86941865 78.6570706 84.80170459 125.78241972 20.64100518 48.79911445 31.10720888 100.62557578 31.10720888 154.03946133 0 53.41478467-10.46620372 105.24124599-31.10720888 154.03946133-19.93228594 47.12445-48.46454121 89.44435635-84.80170459 125.78331885-36.3380625 36.33716338-78.65796972 64.86941865-125.78331885 84.80170459C617.24079688 897.26548994 565.41433467 907.73169365 511.99955 907.73169365z
		M511.99955 152.24391494c-48.57336738 0-95.68432617 9.50925234-140.02516318 28.26513633-42.83705654 18.11911552-81.31296973 44.06202597-114.35836465 77.1074209s-58.98830625 71.52130898-77.1074209 114.35836465c-18.7558831 44.34083701-28.26513633 91.4517958-28.26513633 140.02516318s9.50925234 95.68432617 28.26513633 140.02426318c18.11911552 42.83795566 44.06202597 81.31296973 77.1074209 114.35836465 33.04539492 33.04629492 71.52130898 58.98920537 114.35836465 77.1074209 44.34083701 18.7558831 91.4517958 28.26513633 140.02516318 28.26513633s95.68432617-9.50925234 140.02426318-28.26513633c42.83795566-18.11911552 81.31296973-44.06112685 114.35836465-77.1074209 33.04629492-33.04539492 58.98920537-71.52040898 77.1074209-114.35836465 18.7558831-44.34083701 28.26513633-91.4517958 28.26513633-140.02426318s-9.50925234-95.68432617-28.26513633-140.02516318c-18.11911552-42.83705654-44.06112685-81.31296973-77.1074209-114.35836465-33.04539492-33.04539492-71.52040898-58.98830625-114.35836465-77.1074209C607.68387617 161.75316729 560.57291739 152.24391494 511.99955 152.24391494z
		M725.20989365 298.79865019c-2.99766797-2.99676797-7.67899336-3.49413135-11.23877988-1.19618876L462.59874424 459.9226083c-1.07117402 0.69253067-1.9840544 1.60451191-2.67658506 2.67658506L297.59301758 713.9544752c-2.29974083 3.55978652-1.80147832 8.24201191 1.19528965 11.23877988 1.73672227 1.73672227 4.04006045 2.63431406 6.36318545 2.63431406 1.6845583 0 3.37900869-0.47128008 4.87559443-1.43902442l251.36337568-162.32104599c1.07117402-0.69253067 1.9840544-1.60361279 2.67658507-2.67568594l162.33813456-251.35528096C728.70492412 306.47764443 728.20666162 301.79541904 725.20989365 298.79865019z
		M511.99955 549.66196513c-20.76691992 0-37.66196513-16.89504521-37.66196513-37.66196513s16.89504521-37.66196513 37.66196513-37.66196513 37.66196513 16.89504521 37.66196513 37.66196513S532.76646992 549.66196513 511.99955 549.66196513z"
          fill="#999999"
          p-id="19644">

    </path>
</svg>