<?xml version="1.0" standalone="no"?><!DOCTYPE svg PUBLIC "-//W3C//DTD SVG 1.1//EN" "http://www.w3.org/Graphics/SVG/1.1/DTD/svg11.dtd"><svg t="1533284159849" class="icon" style="" viewBox="0 0 1042 1024" version="1.1" xmlns="http://www.w3.org/2000/svg" p-id="5076" xmlns:xlink="http://www.w3.org/1999/xlink" width="130.25" height="128"><defs><style type="text/css"></style></defs><path d="M387.657143 20.114286l336.457143 413.257143 9.142857-391.314286C669.257143 14.628571 599.771429 0 530.285714 0c-49.371429 0-96.914286 7.314286-142.628571 20.114286z" fill="#E67258" p-id="5077"></path><path d="M82.285714 265.142857l530.285715 54.857143L341.942857 36.571429c-65.828571 25.6-124.342857 64-173.714286 113.371428-34.742857 34.742857-62.171429 73.142857-85.942857 115.2z" fill="#E7AD5A" p-id="5078"></path><path d="M38.4 654.628571l413.257143-336.457142-391.314286-9.142858C32.914286 373.028571 18.285714 442.514286 18.285714 512c0 49.371429 7.314286 96.914286 20.114286 142.628571z" fill="#E7D55C" p-id="5079"></path><path d="M283.428571 960l54.857143-530.285714L54.857143 700.342857c25.6 65.828571 64 124.342857 113.371428 173.714286 34.742857 34.742857 73.142857 62.171429 115.2 85.942857z" fill="#B2D361" p-id="5080"></path><path d="M672.914286 1003.885714L336.457143 590.628571l-9.142857 391.314286C391.314286 1009.371429 460.8 1024 530.285714 1024c49.371429 0 96.914286-7.314286 142.628572-20.114286z" fill="#78BE59" p-id="5081"></path><path d="M978.285714 758.857143l-530.285714-54.857143L718.628571 987.428571c65.828571-25.6 124.342857-64 173.714286-113.371428 34.742857-34.742857 62.171429-73.142857 85.942857-115.2z" fill="#71C6D5" p-id="5082"></path><path d="M1022.171429 369.371429L608.914286 705.828571l391.314285 9.142858C1027.657143 650.971429 1042.285714 581.485714 1042.285714 512c0-49.371429-7.314286-96.914286-20.114285-142.628571z" fill="#5E93CE" p-id="5083"></path><path d="M777.142857 64l-54.857143 530.285714L1005.714286 323.657143c-43.885714-109.714286-124.342857-202.971429-228.571429-259.657143z" fill="#5758A4" p-id="5084"></path></svg>