<?xml version="1.0" standalone="no"?><!DOCTYPE svg PUBLIC "-//W3C//DTD SVG 1.1//EN" "http://www.w3.org/Graphics/SVG/1.1/DTD/svg11.dtd"><svg t="1533257287414" class="icon" style="" viewBox="0 0 1024 1024" version="1.1" xmlns="http://www.w3.org/2000/svg" p-id="2813" xmlns:xlink="http://www.w3.org/1999/xlink" width="32" height="32"><defs><style type="text/css"></style></defs><path d="M995.84 465.92h-115.2v-115.2c0-12.8-10.24-23.04-23.04-23.04h-23.04c-12.8 0-23.04 10.24-23.04 23.04v115.2h-115.2c-12.8 0-23.04 10.24-23.04 23.04v23.04c0 12.8 10.24 23.04 23.04 23.04h115.2v115.2c0 12.8 10.24 23.04 23.04 23.04h23.04c12.8 0 23.04-10.24 23.04-23.04v-115.2h115.2c12.8 0 23.04-10.24 23.04-23.04v-23.04c0-12.8-10.24-23.04-23.04-23.04z m-486.4 184.32c-5.12-2.56-38.4-23.04-17.92-81.92 51.2-35.84 87.04-128 87.04-243.2 0-138.24-64-207.36-184.32-207.36s-184.32 69.12-184.32 207.36c0 112.64 35.84 207.36 89.6 243.2 12.8 58.88-10.24 76.8-17.92 79.36C179.2 691.2 5.12 788.48 5.12 842.24v35.84c0 12.8 10.24 23.04 23.04 23.04h734.72c10.24 0 23.04-10.24 23.04-23.04v-35.84c2.56-53.76-166.4-151.04-276.48-192z" fill="#ffffff" p-id="2814"></path></svg>