<?xml version="1.0" standalone="no"?>
<!DOCTYPE svg PUBLIC "-//W3C//DTD SVG 1.1//EN" "http://www.w3.org/Graphics/SVG/1.1/DTD/svg11.dtd">

<svg t="1533256134516" class="icon" style="" viewBox="0 0 1115 1024" version="1.1"
     xmlns="http://www.w3.org/2000/svg" p-id="15495"
     xmlns:xlink="http://www.w3.org/1999/xlink" width="139.375" height="128">

    <defs>
        <style type="text/css"></style>
    </defs>

    <path d="M830.604929 989.411556H122.033131c-70.60299 0-122.033131-47.21002-122.033131-112.288324v-20.640323c0-56.221737 39.647677-110.015354 96.523636-130.724202l173.464566-77.105131c22.509899-7.315394 44.121212-16.663273 49.153293-21.207919-1.702788 0-1.300687-14.140768-5.360485-21.937132-1.46101-2.848323-5.118707-8.124768-9.912889-15.274666-30.462707-46.63596-94.082586-143.653495-94.082586-234.966627 0-175.906909 119.028364-319.066505 265.360808-319.066505 146.487596 0 265.676283 143.160889 265.676283 319.066505 0 84.009374-56.464808 169.077657-90.09907 219.932445-9.430626 14.064485-17.228283 24.868202-19.911112 31.529374-5.847919 20.067556-4.300283 27.786343-4.300282 27.872969 2.023434-3.011232 21.449697 9.014303 35.256889 14.458828l194.831515 75.966061c56.142869 20.147717 96.037495 74.340848 96.037495 131.54004v20.640324c0.001293 64.994263-51.430141 112.204283-122.033132 112.204283z

m0 0" fill="rgb(82,169,54)" p-id="15496"></path>

    <path d="M810.130101 430.576485c-20.313212 0-36.642909-10.31499-36.642909-32.170667 0-21.616485 16.329697-31.930182 36.642909-31.930182h268.825859c20.314505 0 35.587879 10.31499 35.587878 31.930182 0 21.937131-17.630384 32.170667-37.778101 32.170667H810.130101z
m54.595232 146.659555c-20.147717 0-36.63903-10.326626-36.63903-32.091798 0-21.774222 16.491313-32.095677 36.63903-32.095676h214.723233c20.30804 0 34.442343 10.321455 34.442343 32.095676 0 21.765172-15.349657 32.091798-35.582707 32.091798H864.725333z
m67.599515 138.201213c-20.142545 0-36.477414-10.313697-36.477414-32.095677 0-21.774222 16.334869-31.930182 36.477414-31.930182h147.767596c20.313212 0 35.587879 10.15596 35.587879 31.930182 0 21.776808-16.329697 32.095677-36.804525 32.095677H932.324848z
m0 0"


          fill="rgb(82,169,54)" p-id="15497"></path></svg>