<?xml version="1.0" standalone="no"?><!DOCTYPE svg PUBLIC "-//W3C//DTD SVG 1.1//EN" "http://www.w3.org/Graphics/SVG/1.1/DTD/svg11.dtd"><svg t="1533198972757" class="icon" style="" viewBox="0 0 1024 1024" version="1.1" xmlns="http://www.w3.org/2000/svg" p-id="2868" xmlns:xlink="http://www.w3.org/1999/xlink" width="128" height="128"><defs><style type="text/css"></style></defs><path d="M815.738 486.23c13.897 0 25.405 11.653 25.405 25.77 0 175.421-134.34 319.561-303.738 332.434v103.668h76.24c13.896 0 25.404 11.654 25.404 25.746 0 14.117-11.483 25.771-25.405 25.771H410.965c-13.921 0-25.429-11.654-25.429-25.77 0-14.093 11.508-25.747 25.43-25.747h75.629V844.434C317.172 831.561 182.857 687.421 182.857 512c0-14.117 11.508-25.77 25.405-25.77 13.922 0 25.43 11.653 25.43 25.77 0 155.794 124.635 282.136 278.308 282.136S790.309 667.794 790.309 512c0-14.117 11.507-25.77 25.429-25.77zM512 691.711c-98.011 0-177.274-80.36-177.274-179.712V204.093c0-99.352 79.238-179.712 177.274-179.712 98.011 0 177.274 80.36 177.274 179.712V512c0 99.352-79.238 179.712-177.274 179.712z" p-id="2869" fill="#8a8a8a"></path></svg>