<?xml version="1.0" standalone="no"?><!DOCTYPE svg PUBLIC "-//W3C//DTD SVG 1.1//EN" "http://www.w3.org/Graphics/SVG/1.1/DTD/svg11.dtd"><svg t="1533198589483" class="icon" style="" viewBox="0 0 1024 1024" version="1.1" xmlns="http://www.w3.org/2000/svg" p-id="2183" xmlns:xlink="http://www.w3.org/1999/xlink" width="128" height="128"><defs><style type="text/css"></style></defs><path d="M410.441465 737.437425c-185.987948 0-337.304236-151.315264-337.304236-337.304236S224.452493 62.828954 410.441465 62.828954c185.988971 0 337.304236 151.315264 337.304236 337.304236S596.430436 737.437425 410.441465 737.437425zM410.441465 114.474194c-157.518546 0-285.658995 128.146589-285.658995 285.658995S252.922918 685.792185 410.441465 685.792185c157.518546 0 285.658995-128.147612 285.658995-285.658995S567.958988 114.474194 410.441465 114.474194z" fill="#8a8a8a" p-id="2184"></path><path d="M922.99098 956.932512c-6.606465 0-13.213953-2.521426-18.256806-7.565303L603.023598 647.65254c-10.085706-10.081613-10.085706-26.434046 0-36.515658 10.086729-10.085706 26.427906-10.085706 36.515658 0L941.248809 912.853597c10.085706 10.07445 10.085706 26.427906 0 36.514635C936.204933 954.411085 929.598468 956.932512 922.99098 956.932512z" fill="#8a8a8a" p-id="2185"></path></svg>