<?xml version="1.0" standalone="no"?><!DOCTYPE svg PUBLIC "-//W3C//DTD SVG 1.1//EN" "http://www.w3.org/Graphics/SVG/1.1/DTD/svg11.dtd"><svg t="1533280398279" class="icon" style="" viewBox="0 0 1396 1024" version="1.1" xmlns="http://www.w3.org/2000/svg" p-id="2282" xmlns:xlink="http://www.w3.org/1999/xlink" width="174.5" height="128"><defs><style type="text/css"></style></defs><path d="M1396.172801 887.150449c0 19.114539-3.28919 36.863754-9.92963 53.371766a131.660698 131.660698 0 0 1-71.555402 72.920726 136.160062 136.160062 0 0 1-53.930307 10.550232H144.511812c-19.548961 0-37.856717-3.413311-55.326661-10.550232a146.865445 146.865445 0 0 1-46.079693-29.199321 144.507158 144.507158 0 0 1-31.588638-43.504195 125.299528 125.299528 0 0 1-11.481135-53.433825V136.842724c0-38.042898 13.591182-70.438318 40.649426-96.90699C67.898505 13.311911 101.069678 0 139.950388 0h1116.24565c38.911741 0 72.051883 13.311911 99.110127 39.935734 27.244424 26.437642 40.835607 58.864092 40.835606 96.90699v204.426274H1047.14628c-38.942771 0-72.082913 12.97058-99.141158 39.097921-27.213394 26.065281-40.649426 58.18143-40.649426 96.193298 1.055023 26.127341 6.60941 49.182702 16.911403 69.321235 8.222975 17.066553 21.814158 32.581601 40.649426 46.545144 19.052479 14.025603 46.452054 21.007375 82.384905 21.007375H1396.358982l-0.186181 273.685448zM978.011225 476.591247c0-19.114539 6.640441-35.157099 20.076473-48.096649a68.266212 68.266212 0 0 1 49.213732-19.642051c19.548961 0 35.777701 6.48529 49.213733 19.611021 13.436032 12.97058 20.076472 29.01314 20.076472 48.096649 0 19.145569-6.640441 35.37431-20.076472 49.027552-12.722339 13.280881-30.533615 20.635014-49.213733 20.293683-19.548961 0-35.932851-6.826621-49.213732-20.324713a66.993978 66.993978 0 0 1-20.045442-48.965492z" fill="#30A1DC" p-id="2283"></path></svg>