<?xml version="1.0" standalone="no"?><!DOCTYPE svg PUBLIC "-//W3C//DTD SVG 1.1//EN" "http://www.w3.org/Graphics/SVG/1.1/DTD/svg11.dtd"><svg t="1533366065400" class="icon" style="" viewBox="0 0 1024 1024" version="1.1" xmlns="http://www.w3.org/2000/svg" p-id="2186" xmlns:xlink="http://www.w3.org/1999/xlink" width="128" height="128"><defs><style type="text/css"></style></defs><path d="M512 912.4c-3.7 0-9.3-1.9-13.1-3.7C482.1 901.2 64 688.4 64 369.2c0-141.9 115.7-257.6 257.6-257.6 72.8 0 141.9 31.7 190.4 84 48.5-54.1 117.6-84 190.4-84 141.9 0 257.6 115.7 257.6 257.6 0 319.2-418.1 532-434.9 539.5-3.8 1.8-9.4 3.7-13.1 3.7zM321.6 169.5c-110.1 0-199.7 89.6-199.7 199.7 0 253.8 321 444.3 390.1 481.6 69.1-37.3 390.1-227.7 390.1-481.6 0-110.1-89.6-199.7-199.7-199.7-67.2 0-128.8 33.6-166.1 89.6-11.2 16.8-37.3 16.8-48.5 0-37.4-56-99-89.6-166.2-89.6z m0 0" p-id="2187" fill="rgb(112,113,143)"></path></svg>