<?xml version="1.0" standalone="no"?>
<!DOCTYPE svg PUBLIC "-//W3C//DTD SVG 1.1//EN" "http://www.w3.org/Graphics/SVG/1.1/DTD/svg11.dtd">

<svg t="1533256134516" class="icon" style=""
     viewBox="0 0 1000 1024"
     version="1.1"
     xmlns="http://www.w3.org/2000/svg" p-id="15495"
     xmlns:xlink="http://www.w3.org/1999/xlink" width="139.375" height="128">
    <!--

    viewBox="0 0 1115 1024"
    -->
    <defs>
        <style type="text/css"></style>
    </defs>

    <path d="M830.604929 989.411556H122.033131c-70.60299 0-122.033131-47.21002-122.033131-112.288324v-20.640323c0-56.221737 39.647677-110.015354 96.523636-130.724202l173.464566-77.105131c22.509899-7.315394 44.121212-16.663273 49.153293-21.207919-1.702788 0-1.300687-14.140768-5.360485-21.937132-1.46101-2.848323-5.118707-8.124768-9.912889-15.274666-30.462707-46.63596-94.082586-143.653495-94.082586-234.966627 0-175.906909 119.028364-319.066505 265.360808-319.066505 146.487596 0 265.676283 143.160889 265.676283 319.066505 0 84.009374-56.464808 169.077657-90.09907 219.932445-9.430626 14.064485-17.228283 24.868202-19.911112 31.529374-5.847919 20.067556-4.300283 27.786343-4.300282 27.872969 2.023434-3.011232 21.449697 9.014303 35.256889 14.458828l194.831515 75.966061c56.142869 20.147717 96.037495 74.340848 96.037495 131.54004v20.640324c0.001293 64.994263-51.430141 112.204283-122.033132 112.204283z
M475.129535 103.40202c-107.990626 0-196.041697 112.259879-196.041697 250.285253 0 70.737455 58.343434 159.855192 83.375839 197.931959 6.394828 9.929697 12.254384 16.84299 14.444606 20.990707 16.815838 32.576646 13.613253 81.998869-6.244849 104.561778-18.294949 20.191677-60.229818 34.795313-77.384404 40.049778l-173.553777 77.385697c-31.347071 11.487677-52.522667 38.560323-52.522667 65.316202v20.844606c0 30.608808 27.570424 41.443556 51.290505 41.443556h715.65705c23.714909 0 51.285333-10.834747 51.285334-41.443556v-20.844606c0-27.574303-21.170424-55.067152-50.143677-65.568323L637.689535 717.381818c-10.256808-3.935677-45.699879-18.539313-64.085333-36.845899-19.697778-18.878061-22.895192-49.812687-9.768081-94.285576 3.940848-12.965495 13.212444-26.997657 28.555637-50.226424 29.542141-44.558222 79.022545-119.14602 79.022545-182.337939 0-138.025374-87.965737-250.28396-196.284768-250.28396z
m0 0" fill="#999999" p-id="15496"></path>


</svg>