<?xml version="1.0" standalone="no"?><!DOCTYPE svg PUBLIC "-//W3C//DTD SVG 1.1//EN" "http://www.w3.org/Graphics/SVG/1.1/DTD/svg11.dtd"><svg t="1533206866418" class="icon" style="" viewBox="0 0 1024 1024" version="1.1" xmlns="http://www.w3.org/2000/svg" p-id="4740" xmlns:xlink="http://www.w3.org/1999/xlink" width="128" height="128"><defs><style type="text/css"></style></defs><path d="M832 901.266286v-69.266286h-5.339429l-37.376-448.877714A278.308571 278.308571 0 0 0 575.561143 135.314286a64 64 0 1 0-127.195429 0 278.601143 278.601143 0 0 0-200.118857 182.198857l583.753143 583.753143z m-31.817143 58.733714L233.837714 393.654857l-36.571428 438.345143H128a64 64 0 1 0 0 128h672.182857z" fill="#B9B9B9" p-id="4741"></path><path d="M153.088 157.549714a32.036571 32.036571 0 0 0-45.202286 45.275429L877.202286 972.068571a32.036571 32.036571 0 0 0 45.275428-45.275428L153.088 157.549714z" fill="#B9B9B9" p-id="4742"></path></svg>